<svg width="50" height="17" viewBox="0 0 50 17" fill="none" xmlns="http://www.w3.org/2000/svg">
<path d="M0 0H45C47.7614 0 50 2.23858 50 5V17H5C2.23858 17 0 14.7614 0 12V0Z" fill="#E75982"/>
<path d="M18.04 8.388C18.584 8.452 18.972 8.636 19.204 8.94C19.436 9.236 19.552 9.596 19.552 10.02C19.552 10.284 19.512 10.536 19.432 10.776C19.352 11.008 19.256 11.208 19.144 11.376C19.032 11.536 18.936 11.64 18.856 11.688C18.536 11.896 17.56 12 15.928 12H13.6V5.16H16.42C17.06 5.16 17.576 5.196 17.968 5.268C18.368 5.332 18.692 5.484 18.94 5.724C19.188 5.956 19.312 6.312 19.312 6.792C19.312 7.208 19.208 7.544 19 7.8C18.8 8.056 18.48 8.232 18.04 8.328V8.388ZM17.08 6.612C17 6.532 16.904 6.484 16.792 6.468C16.688 6.444 16.52 6.432 16.288 6.432C16.056 6.432 15.88 6.436 15.76 6.444V7.908H15.88C15.92 7.908 16.088 7.908 16.384 7.908C16.68 7.908 16.876 7.888 16.972 7.848C17.044 7.816 17.108 7.732 17.164 7.596C17.228 7.46 17.26 7.312 17.26 7.152C17.26 6.912 17.2 6.732 17.08 6.612ZM17.284 10.62C17.34 10.572 17.384 10.484 17.416 10.356C17.456 10.22 17.476 10.084 17.476 9.948C17.476 9.78 17.452 9.624 17.404 9.48C17.364 9.328 17.308 9.22 17.236 9.156C17.164 9.084 17.06 9.036 16.924 9.012C16.796 8.988 16.576 8.976 16.264 8.976C16.064 8.976 15.896 8.98 15.76 8.988V10.728C16.136 10.736 16.472 10.732 16.768 10.716C17.064 10.692 17.236 10.66 17.284 10.62ZM20.3955 5.16H25.3755V6.6H22.5555V7.848H24.9315V9.144H22.5555V10.536H25.3635V12H20.3955V5.16ZM29.8794 12H27.7194V6.66H25.7874V5.16H31.8114V6.66H29.8794V12ZM35.9467 10.5H33.9547L33.5947 12H31.3867L33.5947 5.16H36.4147L38.5267 12H36.3067L35.9467 10.5ZM34.9387 6.636L34.2307 9.168H35.6587L34.9867 6.636H34.9387Z" fill="white"/>
</svg>
