<svg width="460" height="460" viewBox="0 0 460 460" fill="none" xmlns="http://www.w3.org/2000/svg">
<path d="M321.54 141.22C351.44 168.36 380.19 199.18 384.56 234.37C388.7 269.33 368.46 308.66 338.56 346.84C308.66 384.79 269.33 421.59 228.16 423.2C186.99 425.04 144.21 391.92 114.77 353.97C85.1 315.79 69.23 273.01 66.7001 227.47C64.1701 182.16 75.21 134.09 104.65 106.95C134.09 79.81 182.16 73.37 221.49 81.88C260.82 90.39 291.64 113.85 321.54 141.22Z" fill="#C5F2FB"/>
<path d="M389.343 114.569C423.896 142.068 430.645 204.347 426.865 262.851C423.086 321.355 408.779 376.354 374.226 393.609C339.673 410.863 284.604 390.643 227.916 392.53C171.227 394.148 112.649 418.143 75.6665 400.888C38.6839 383.633 23.297 325.129 37.3342 280.645C51.1014 235.89 94.5626 205.425 131.545 177.926C168.528 150.696 199.031 126.701 245.732 111.064C292.163 95.1572 354.52 87.3387 389.343 114.569Z" fill="#0DACCB" fill-opacity="0.4"/>
</svg>
