<svg width="33" height="26" viewBox="0 0 33 26" fill="none" xmlns="http://www.w3.org/2000/svg">
<mask id="mask0_176_767" style="mask-type:luminance" maskUnits="userSpaceOnUse" x="5" y="13" width="23" height="13">
<path d="M27.9113 13.5101V19.3347L16.5281 26L5.08852 19.4547V13.5101L7.98665 15.1315V18.1337L16.4998 22.6973L24.9528 18.1337V15.2515L27.9113 13.5101Z" fill="white"/>
</mask>
<g mask="url(#mask0_176_767)">
<path d="M5.08852 13.5101H27.9113V26H5.08852V13.5101Z" fill="#1A324F"/>
</g>
<mask id="mask1_176_767" style="mask-type:luminance" maskUnits="userSpaceOnUse" x="0" y="0" width="33" height="20">
<path d="M16.5887 0L32.5 9.12704L23.1416 14.4713L13.8435 9.24723L16.5887 7.32576L23.1415 10.9285L26.4624 9.06699L16.5887 3.36254L6.65856 9.12704L19.519 16.5128L16.5887 18.4943L2.25099 10.096V15.5454C2.64251 15.7298 2.9152 16.1233 2.9152 16.5829V18.6045C2.9152 19.2401 2.39712 19.7554 1.75813 19.7554H1.65717C1.01808 19.7554 0.5 19.2401 0.5 18.6045V16.5828C0.5 16.0516 0.86384 15.609 1.35573 15.4764V9.57179L0.801867 9.24723L16.5887 0Z" fill="white"/>
</mask>
<g mask="url(#mask1_176_767)">
<path d="M0.5 0H32.5V19.7554H0.5V0Z" fill="#0DACCB"/>
</g>
</svg>
