<svg width="60" height="49" viewBox="0 0 60 49" fill="none" xmlns="http://www.w3.org/2000/svg">
<mask id="mask0_297_3308" style="mask-type:luminance" maskUnits="userSpaceOnUse" x="8" y="25" width="44" height="24">
<path d="M51.3963 25.4215V36.3814L30.0528 48.9231L8.60345 36.6072V25.4215L14.0375 28.4724V34.1215L29.9997 42.7086L45.849 34.1215V28.6981L51.3963 25.4215Z" fill="white"/>
</mask>
<g mask="url(#mask0_297_3308)">
<path d="M8.60345 25.4215H51.3963V48.9231H8.60345V25.4215Z" fill="#1A324F"/>
</g>
<mask id="mask1_297_3308" style="mask-type:luminance" maskUnits="userSpaceOnUse" x="0" y="0" width="60" height="38">
<path d="M30.1663 0L60 17.174L42.453 27.2301L25.019 17.4001L30.1663 13.7846L42.4529 20.5637L48.6795 17.061L30.1663 6.32714L11.5473 17.174L35.6606 31.0714L30.1663 34.7999L3.2831 18.9972V29.2511C4.0172 29.5981 4.5285 30.3384 4.5285 31.2033V35.0073C4.5285 36.2033 3.5571 37.1728 2.359 37.1728H2.1697C0.9714 37.1728 0 36.2033 0 35.0073V31.2031C0 30.2036 0.6822 29.3707 1.6045 29.1212V18.0108L0.566 17.4001L30.1663 0Z" fill="white"/>
</mask>
<g mask="url(#mask1_297_3308)">
<path d="M0 0H60V37.1728H0V0Z" fill="#0DACCB"/>
</g>
</svg>
