<svg width="752" height="205" viewBox="0 0 752 205" fill="none" xmlns="http://www.w3.org/2000/svg">
<mask id="mask0_23_969" style="mask-type:luminance" maskUnits="userSpaceOnUse" x="35" y="106" width="180" height="99">
<path d="M214.604 106.348V152.197L125.485 204.663L35.9241 153.141V106.348L58.6135 119.111V142.743L125.263 178.666L191.441 142.743V120.055L214.604 106.348Z" fill="white"/>
</mask>
<g mask="url(#mask0_23_969)">
<path d="M35.9241 106.348H214.604V204.663H35.9241V106.348Z" fill="#1A324F"/>
</g>
<mask id="mask1_23_969" style="mask-type:luminance" maskUnits="userSpaceOnUse" x="0" y="0" width="251" height="156">
<path d="M125.958 0L250.527 71.8439L177.261 113.912L104.466 72.79L125.958 57.6651L177.26 86.0244L203.259 71.3713L125.958 26.4684L48.2153 71.8439L148.899 129.981L125.958 145.579L13.7084 79.4711V122.366C16.7737 123.818 18.9086 126.915 18.9086 130.533V146.446C18.9086 151.449 14.8525 155.505 9.84991 155.505H9.05949C4.05604 155.505 0 151.449 0 146.446V130.532C0 126.351 2.8485 122.867 6.69952 121.823V75.3448L2.36331 72.79L125.958 0Z" fill="white"/>
</mask>
<g mask="url(#mask1_23_969)">
<path d="M0 0H250.527V155.505H0V0Z" fill="#0DACCB"/>
</g>
<mask id="mask2_23_969" style="mask-type:luminance" maskUnits="userSpaceOnUse" x="271" y="60" width="61" height="85">
<path d="M303.21 60.5396C314.503 60.5396 322.685 63.3077 329.714 70.1123L319.573 80.1465C314.503 75.1872 308.166 74.495 302.749 74.495C294.222 74.495 290.188 79.2238 290.188 84.8753C290.188 87.0668 290.764 89.1427 292.493 90.7576C294.106 92.2565 296.526 93.4101 299.983 93.8715L309.778 95.3708C317.268 96.4091 321.878 98.3698 325.45 101.83C329.829 105.867 331.789 111.749 331.789 119.13C331.789 135.046 318.651 144.043 301.366 144.043C288.921 144.043 279.471 141.39 271.405 133.201L281.776 122.821C286.962 128.011 293.991 129.741 301.481 129.741C311.046 129.741 316.116 126.05 316.116 119.476C316.116 116.708 315.31 114.402 313.581 112.671C311.968 111.172 310.354 110.48 306.206 109.903L296.411 108.404C289.151 107.366 284.196 105.174 280.509 101.599C276.59 97.7932 274.632 92.3722 274.632 85.4523C274.632 70.8046 285.464 60.5396 303.21 60.5396Z" fill="white"/>
</mask>
<g mask="url(#mask2_23_969)">
<path d="M271.405 60.5396H331.788V144.043H271.405V60.5396Z" fill="#1A334F"/>
</g>
<mask id="mask3_23_969" style="mask-type:luminance" maskUnits="userSpaceOnUse" x="340" y="60" width="60" height="84">
<path d="M399.88 60.9683V75.2874H378.369V143.187H362.293V75.2874H340.782V60.9683H399.88Z" fill="white"/>
</mask>
<g mask="url(#mask3_23_969)">
<path d="M340.782 60.9683H399.88V143.187H340.782V60.9683Z" fill="#1A334F"/>
</g>
<mask id="mask4_23_969" style="mask-type:luminance" maskUnits="userSpaceOnUse" x="411" y="61" width="61" height="84">
<path d="M427.461 61.396V114.691C427.461 124.129 432.992 129.77 441.635 129.77C450.278 129.77 455.925 124.129 455.925 114.691V61.396H471.827V115.266C471.827 132.647 458.459 144.043 441.635 144.043C424.811 144.043 411.443 132.647 411.443 115.266V61.396H427.461Z" fill="white"/>
</mask>
<g mask="url(#mask4_23_969)">
<path d="M411.443 61.396H471.827V144.043H411.443V61.396Z" fill="#1A334F"/>
</g>
<mask id="mask5_23_969" style="mask-type:luminance" maskUnits="userSpaceOnUse" x="489" y="60" width="61" height="84">
<path d="M519.404 60.9683C530.573 60.9683 538.287 64.7789 544.159 72.9777C549.225 80.0216 549.341 88.4512 549.341 102.078L549.34 102.485C549.338 115.872 549.175 124.204 544.159 131.177C538.287 139.376 530.573 143.187 519.404 143.187H489.813V60.9683H519.404ZM518.023 75.2874H505.818V128.868H518.023C523.434 128.868 527.349 127.136 529.998 123.787C532.991 120.207 533.336 115.011 533.336 102.078V101.692C533.329 89.0403 532.961 83.912 529.998 80.3681C527.349 77.0196 523.435 75.2869 518.023 75.2869V75.2874Z" fill="white"/>
</mask>
<g mask="url(#mask5_23_969)">
<path d="M489.813 60.9683H549.34V143.187H489.813V60.9683Z" fill="#1A334F"/>
</g>
<mask id="mask6_23_969" style="mask-type:luminance" maskUnits="userSpaceOnUse" x="554" y="60" width="67" height="84">
<path d="M572.274 60.9683L587.57 94.1098L602.635 60.9683H620.002L595.39 109.468V143.187H579.519V109.468L554.907 60.9683H572.274Z" fill="white"/>
</mask>
<g mask="url(#mask6_23_969)">
<path d="M554.907 60.9683H620.002V143.187H554.907V60.9683Z" fill="#1A334F"/>
</g>
<mask id="mask7_23_969" style="mask-type:luminance" maskUnits="userSpaceOnUse" x="627" y="60" width="51" height="84">
<path d="M652.393 60.5396C666.974 60.5396 677.388 69.633 677.388 84.3667C677.388 92.3091 674.263 96.5678 668.594 103.129L645.566 129.718H677.388V143.186H627.282V129.718L658.063 94.1504C661.072 90.5823 662.345 88.05 662.345 84.2515C662.345 78.1508 658.758 74.0069 652.393 74.0069C647.417 74.0069 642.326 76.5396 642.326 84.4815H627.282C627.282 69.5178 638.276 60.5396 652.393 60.5396Z" fill="white"/>
</mask>
<g mask="url(#mask7_23_969)">
<path d="M627.282 60.5396H677.388V143.186H627.282V60.5396Z" fill="#0DACCB"/>
</g>
<mask id="mask8_23_969" style="mask-type:luminance" maskUnits="userSpaceOnUse" x="691" y="61" width="61" height="84">
<path d="M707.538 61.396V114.691C707.538 124.129 713.069 129.77 721.712 129.77C730.355 129.77 736.001 124.129 736.001 114.691V61.396H751.904V115.266C751.904 132.647 738.536 144.043 721.712 144.043C704.888 144.043 691.52 132.647 691.52 115.266V61.396H707.538Z" fill="white"/>
</mask>
<g mask="url(#mask8_23_969)">
<path d="M691.52 61.396H751.904V144.043H691.52V61.396Z" fill="#1A334F"/>
</g>
</svg>
