<svg width="25" height="25" viewBox="0 0 25 25" fill="none" xmlns="http://www.w3.org/2000/svg">
<circle cx="12.5" cy="12.5" r="12.5" fill="#5EC9AA"/>
<path d="M5.08817 12C5.08817 11.2353 5.7081 10.6154 6.47275 10.6154L11.6154 10.6155L11.6154 5.47282C11.6154 4.70811 12.2352 4.08829 12.9999 4.08828C13.7647 4.08826 14.3846 4.70819 14.3846 5.47296L14.3846 10.6153L19.527 10.6153C20.2917 10.6153 20.9117 11.2353 20.9117 12C20.9117 12.7647 20.2917 13.3847 19.527 13.3847L14.3846 13.3847L14.3846 18.527C14.3846 19.2918 13.7647 19.9117 12.9999 19.9117C12.2352 19.9117 11.6154 19.2919 11.6154 18.5272L11.6154 13.3845L6.47275 13.3846C5.7081 13.3846 5.08817 12.7647 5.08817 12Z" fill="white"/>
</svg>
