<svg width="33" height="33" viewBox="0 0 33 33" fill="none" xmlns="http://www.w3.org/2000/svg">
<g clip-path="url(#clip0_232_2682)">
<g clip-path="url(#clip1_232_2682)">
<path d="M25.1437 17.2864C25.1894 22.2104 29.4633 23.849 29.5107 23.8699C29.4746 23.9855 28.8278 26.205 27.259 28.4977C25.9028 30.4799 24.4953 32.4547 22.278 32.4956C20.0993 32.5358 19.3988 31.2037 16.9079 31.2037C14.4178 31.2037 13.6394 32.4547 11.5771 32.5358C9.43686 32.6168 7.8071 30.3924 6.43966 28.4175C3.64547 24.3778 1.51013 17.0023 4.37735 12.0237C5.80173 9.55136 8.3472 7.98574 11.1101 7.9456C13.2117 7.90551 15.1954 9.35951 16.4802 9.35951C17.7641 9.35951 20.1748 7.61094 22.709 7.86774C23.7698 7.9119 26.7478 8.29629 28.6601 11.0953C28.506 11.1908 25.1067 13.1697 25.1437 17.2864V17.2864ZM21.0491 5.19515C22.1854 3.81975 22.9501 1.90507 22.7415 -2.28882e-05C21.1037 0.0658033 19.1231 1.09138 17.9484 2.46602C16.8955 3.68333 15.9735 5.63171 16.2223 7.4991C18.0478 7.64034 19.9128 6.57142 21.0491 5.19515" fill="black"/>
</g>
</g>
<defs>
<clipPath id="clip0_232_2682">
<rect width="32.6" height="32.6" fill="white" transform="translate(0.300049)"/>
</clipPath>
<clipPath id="clip1_232_2682">
<rect width="26.494" height="32.6" fill="white" transform="translate(3.01672 -2.28882e-05)"/>
</clipPath>
</defs>
</svg>
