<svg width="22" height="22" viewBox="0 0 22 22" fill="none" xmlns="http://www.w3.org/2000/svg">
<path fill-rule="evenodd" clip-rule="evenodd" d="M6.1875 2.0625C6.5672 2.0625 6.875 2.3703 6.875 2.75V4.125H15.125V2.75C15.125 2.3703 15.4328 2.0625 15.8125 2.0625C16.1922 2.0625 16.5 2.3703 16.5 2.75V4.125H17.1875C18.7063 4.125 19.9375 5.35622 19.9375 6.875V17.1875C19.9375 18.7063 18.7063 19.9375 17.1875 19.9375H4.8125C3.29372 19.9375 2.0625 18.7063 2.0625 17.1875V6.875C2.0625 5.35622 3.29372 4.125 4.8125 4.125H5.5V2.75C5.5 2.3703 5.8078 2.0625 6.1875 2.0625ZM18.5625 10.3125C18.5625 9.55311 17.9469 8.9375 17.1875 8.9375H4.8125C4.05311 8.9375 3.4375 9.55311 3.4375 10.3125V17.1875C3.4375 17.9469 4.05311 18.5625 4.8125 18.5625H17.1875C17.9469 18.5625 18.5625 17.9469 18.5625 17.1875V10.3125Z" fill="#656565"/>
</svg>
