<svg width="24" height="25" viewBox="0 0 24 25" fill="none" xmlns="http://www.w3.org/2000/svg">
<path d="M4.91307 3.15823C6.9877 2.88888 9.10296 2.75 11.2503 2.75C13.3974 2.75 15.5124 2.88885 17.5869 3.15815C19.5091 3.40769 20.8783 5.01937 20.9923 6.88495C20.6665 6.77614 20.3212 6.70396 19.96 6.67399C18.5715 6.55874 17.1673 6.5 15.75 6.5C14.3326 6.5 12.9285 6.55874 11.54 6.67398C9.1817 6.86971 7.5 8.86467 7.5 11.1082V15.3937C7.5 17.0844 8.45468 18.6326 9.9328 19.3779L7.28033 22.0303C7.06583 22.2448 6.74324 22.309 6.46299 22.1929C6.18273 22.0768 6 21.8033 6 21.5V17.4705C5.63649 17.4316 5.27417 17.3887 4.91308 17.3418C2.90466 17.081 1.5 15.3333 1.5 13.3626V7.13738C1.5 5.16672 2.90466 3.41899 4.91307 3.15823Z" fill="#C3C4C3"/>
<path d="M15.75 8C14.3741 8 13.0114 8.05702 11.6641 8.16884C10.1248 8.2966 9 9.60282 9 11.1082V15.3937C9 16.9014 10.128 18.2083 11.6692 18.3341C12.9131 18.4357 14.17 18.4912 15.4384 18.499L18.2197 21.2803C18.4342 21.4948 18.7568 21.559 19.037 21.4429C19.3173 21.3268 19.5 21.0533 19.5 20.75V18.3601C19.6103 18.3518 19.7206 18.3432 19.8307 18.3342C21.372 18.2085 22.5 16.9015 22.5 15.3938V11.1082C22.5 9.60283 21.3752 8.29661 19.836 8.16885C18.4886 8.05702 17.1259 8 15.75 8Z" fill="#C3C4C3"/>
</svg>
