<svg width="22" height="22" viewBox="0 0 22 22" fill="none" xmlns="http://www.w3.org/2000/svg">
<path d="M9.48089 3.61171C9.56377 3.11446 9.994 2.75 10.4981 2.75H11.5009C12.005 2.75 12.4353 3.11446 12.5181 3.61171L12.6547 4.43104C12.7195 4.81996 13.0064 5.13185 13.3705 5.28304C13.7348 5.4343 14.1531 5.41409 14.4741 5.18483L15.1502 4.70189C15.5604 4.40888 16.1223 4.45539 16.4788 4.81185L17.1879 5.52094C17.5444 5.8774 17.5909 6.43933 17.2978 6.84954L16.8147 7.52589C16.5855 7.84678 16.5653 8.26497 16.7165 8.62916C16.8677 8.99322 17.1795 9.28 17.5683 9.3448L18.3878 9.48138C18.8851 9.56426 19.2495 9.99448 19.2495 10.4986V11.5014C19.2495 12.0055 18.8851 12.4357 18.3878 12.5186L17.5685 12.6552C17.1796 12.72 16.8677 13.0068 16.7165 13.371C16.5652 13.7353 16.5854 14.1536 16.8147 14.4745L17.2975 15.1505C17.5905 15.5607 17.544 16.1227 17.1876 16.4791L16.4785 17.1882C16.122 17.5447 15.5601 17.5912 15.1499 17.2982L14.4737 16.8152C14.1528 16.586 13.7346 16.5658 13.3704 16.717C13.0063 16.8682 12.7195 17.18 12.6547 17.5688L12.5181 18.3883C12.4353 18.8855 12.005 19.25 11.5009 19.25H10.4981C9.994 19.25 9.56377 18.8855 9.48089 18.3883L9.34434 17.5689C9.27952 17.18 8.99267 16.8681 8.62854 16.717C8.26425 16.5657 7.84595 16.5859 7.52498 16.8152L6.84883 17.2981C6.43861 17.5912 5.87668 17.5447 5.52022 17.1882L4.81113 16.4791C4.45467 16.1226 4.40816 15.5607 4.70117 15.1505L5.18429 14.4741C5.41349 14.1532 5.4337 13.735 5.2825 13.3708C5.13135 13.0068 4.81952 12.72 4.4307 12.6552L3.61123 12.5186C3.11397 12.4357 2.74951 12.0055 2.74951 11.5014V10.4986C2.74951 9.99448 3.11397 9.56426 3.61122 9.48138L4.43055 9.34483C4.81947 9.28001 5.13136 8.99315 5.28255 8.62901C5.43381 8.26471 5.41361 7.84639 5.18434 7.52541L4.70153 6.84948C4.40852 6.43927 4.45503 5.87734 4.81149 5.52088L5.52058 4.81179C5.87704 4.45533 6.43897 4.40882 6.84919 4.70183L7.52532 5.18478C7.84622 5.414 8.26443 5.4342 8.62865 5.28299C8.99272 5.13184 9.27951 4.82 9.34432 4.43117L9.48089 3.61171Z" stroke="#656565" stroke-width="1.5" stroke-linecap="round" stroke-linejoin="round"/>
<path d="M13.7502 11C13.7502 12.5188 12.5189 13.75 11.0002 13.75C9.48137 13.75 8.25015 12.5188 8.25015 11C8.25015 9.48124 9.48137 8.25002 11.0002 8.25002C12.5189 8.25002 13.7502 9.48124 13.7502 11Z" stroke="#656565" stroke-width="1.5" stroke-linecap="round" stroke-linejoin="round"/>
</svg>
