<svg width="25" height="25" viewBox="0 0 25 25" fill="none" xmlns="http://www.w3.org/2000/svg">
<circle cx="12.5" cy="12.5" r="12.5" fill="#FF0000"/>
<path d="M7.40554 6.40554C7.94626 5.86482 8.82297 5.86482 9.36364 6.40554L13 10.042L16.6364 6.40558C17.1771 5.86486 18.0537 5.86486 18.5944 6.40558C19.1352 6.9463 19.1352 7.82301 18.5944 8.36382L14.9582 12L18.5944 15.6362C19.1352 16.177 19.1352 17.0537 18.5944 17.5944C18.0537 18.1352 17.177 18.1352 16.6362 17.5944L13 13.9582L9.36382 17.5944C8.82301 18.1352 7.9463 18.1352 7.40558 17.5944C6.86486 17.0537 6.86486 16.1771 7.40558 15.6364L11.042 12L7.40554 8.36364C6.86482 7.82297 6.86482 6.94626 7.40554 6.40554Z" fill="white"/>
</svg>
