<svg width="31" height="31" viewBox="0 0 31 31" fill="none" xmlns="http://www.w3.org/2000/svg">
<path d="M23.4365 0C24.4739 0 25.451 0.199038 26.3678 0.597115C27.2846 0.995191 28.0868 1.53802 28.7744 2.22561C29.4619 2.9132 30.0048 3.71538 30.4028 4.63216C30.8009 5.54894 31 6.52604 31 7.56345V22.6904C31 23.7278 30.8009 24.7109 30.4028 25.6397C30.0048 26.5686 29.4619 27.3768 28.7744 28.0644C28.0868 28.752 27.2846 29.2948 26.3678 29.6929C25.451 30.091 24.4739 30.29 23.4365 30.29H8.27341C7.236 30.29 6.25891 30.091 5.34212 29.6929C4.42534 29.2948 3.62316 28.752 2.93557 28.0644C2.24798 27.3768 1.70515 26.5686 1.30708 25.6397C0.908999 24.7109 0.709961 23.7278 0.709961 22.6904V7.56345C0.709961 6.52604 0.908999 5.54894 1.30708 4.63216C1.70515 3.71538 2.24798 2.9132 2.93557 2.22561C3.62316 1.53802 4.42534 0.995191 5.34212 0.597115C6.25891 0.199038 7.236 0 8.27341 0H23.4365ZM21.5185 6.62254H18.3339C17.7066 6.62254 17.1276 6.73111 16.5968 6.94824C16.0661 7.16538 15.6077 7.44886 15.2217 7.79868C14.8356 8.14851 14.528 8.55261 14.2988 9.011C14.0696 9.46939 13.9551 9.92779 13.9551 10.3862V12.3042H11.1323V16.0678H13.9551V23.6675H17.7549V16.0678H20.5776V12.3042H17.7549V11.3633C17.7549 11.0496 17.8695 10.8084 18.0987 10.6395C18.3279 10.4706 18.5269 10.3862 18.6958 10.3862H21.5185V6.62254Z" fill="white"/>
</svg>
