<svg width="33" height="33" viewBox="0 0 33 33" fill="none" xmlns="http://www.w3.org/2000/svg">
<g clip-path="url(#clip0_232_2672)">
<path d="M32.7 16.4018C32.7008 13.2662 31.8079 10.1962 30.1272 7.55553C28.4464 4.91489 26.0484 2.81439 23.2171 1.503C20.3859 0.191609 17.2403 -0.275674 14.1532 0.156536C11.066 0.588746 8.16676 1.90233 5.79908 3.94157C3.4314 5.98082 1.69457 8.66023 0.794455 11.6622C-0.105662 14.6642 -0.131317 17.8628 0.72053 20.879C1.57238 23.8952 3.26601 26.6024 5.60067 28.6799C7.93533 30.7573 10.8131 32.1177 13.8929 32.6V21.1425H9.75764V16.4018H13.8929V12.7964C13.8929 8.67969 16.288 6.41765 20.0098 6.41765C21.2335 6.43492 22.4544 6.5421 23.6626 6.73833V10.7684H21.6466C21.2929 10.7202 20.9329 10.7537 20.594 10.8663C20.255 10.9789 19.946 11.1676 19.6903 11.4182C19.4346 11.6687 19.239 11.9745 19.1182 12.3124C18.9974 12.6503 18.9546 13.0114 18.9932 13.3684V16.4365H23.5075L22.7925 21.1772H18.9501V32.6C22.7838 31.9891 26.2749 30.022 28.7955 27.0527C31.3161 24.0833 32.7006 20.3065 32.7 16.4018Z" fill="#1977F3"/>
</g>
<defs>
<clipPath id="clip0_232_2672">
<rect width="32.6" height="32.6" fill="white" transform="translate(0.0999756)"/>
</clipPath>
</defs>
</svg>
