<svg width="16" height="16" viewBox="0 0 16 16" fill="none" xmlns="http://www.w3.org/2000/svg">
<path fill-rule="evenodd" clip-rule="evenodd" d="M14.4 8.0001C14.4 11.5347 11.5346 14.4001 8.00001 14.4001C4.46538 14.4001 1.60001 11.5347 1.60001 8.0001C1.60001 4.46548 4.46538 1.6001 8.00001 1.6001C11.5346 1.6001 14.4 4.46548 14.4 8.0001ZM9.20001 13.061C8.81479 13.1519 8.41302 13.2001 8.00001 13.2001C6.38666 13.2001 4.94492 12.4654 3.99114 11.3123L4.38359 10.5273C4.47468 10.3452 4.70483 10.2841 4.8743 10.397L5.10976 10.554C5.42445 10.7638 5.84348 10.7223 6.11091 10.4549C6.32342 10.2424 6.39762 9.92804 6.30259 9.64293L6.14441 9.16841C6.11272 9.07334 6.15576 8.96943 6.2454 8.92461L7.82415 8.13524C8.22771 7.93346 8.3631 7.42364 8.11283 7.04822C7.99428 6.87041 8.0942 6.62918 8.30376 6.58727L8.40377 6.56727C9.08541 6.43094 9.64173 5.93982 9.86156 5.28036L9.9013 5.16112C9.99713 4.87365 9.92231 4.55671 9.70804 4.34245L8.51716 3.15157C8.44215 3.07655 8.40001 2.97481 8.40001 2.86873V2.81525C11.085 3.0195 13.2 5.26281 13.2 8.0001C13.2 8.78589 13.0257 9.53098 12.7137 10.1988C12.5567 10.0903 12.3707 10.0207 12.1696 10.004L11.7172 9.55157C11.4921 9.32653 11.1869 9.2001 10.8686 9.2001H10.7314C10.4131 9.2001 10.1079 9.32652 9.88285 9.55157L9.40896 10.0255C9.37856 10.0559 9.34346 10.0812 9.30501 10.1004L8.04223 10.7318C7.77121 10.8673 7.60001 11.1443 7.60001 11.4473V11.6001C7.60001 12.0419 7.95818 12.4001 8.40001 12.4001H8.80001C9.02092 12.4001 9.20001 12.5792 9.20001 12.8001V13.061Z" fill="#656565"/>
</svg>
