<svg width="34" height="33" viewBox="0 0 34 33" fill="none" xmlns="http://www.w3.org/2000/svg">
<g clip-path="url(#clip0_232_2675)">
<path d="M32.5382 16.605C32.5382 15.2694 32.4298 14.2947 32.1953 13.284H16.944V19.3123H25.8962C25.7157 20.8104 24.7411 23.0665 22.5752 24.5825L22.5448 24.7843L27.367 28.52L27.7011 28.5534C30.7694 25.7196 32.5382 21.5503 32.5382 16.605Z" fill="#4285F4"/>
<path d="M16.944 32.4879C21.3298 32.4879 25.0117 31.0439 27.7011 28.5532L22.5752 24.5823C21.2035 25.5389 19.3625 26.2067 16.944 26.2067C12.6484 26.2067 9.00251 23.3732 7.70287 19.4566L7.51237 19.4727L2.49819 23.3533L2.43262 23.5355C5.10383 28.8419 10.5907 32.4879 16.944 32.4879Z" fill="#34A853"/>
<path d="M7.70285 19.4567C7.35993 18.446 7.16147 17.363 7.16147 16.244C7.16147 15.1249 7.35993 14.042 7.68481 13.0313L7.67573 12.816L2.59871 8.87314L2.4326 8.95215C1.33167 11.1541 0.699951 13.6269 0.699951 16.244C0.699951 18.8611 1.33167 21.3337 2.4326 23.5357L7.70285 19.4567Z" fill="#FBBC05"/>
<path d="M16.944 6.28095C19.9942 6.28095 22.0517 7.59852 23.2249 8.69957L27.8094 4.22342C24.9938 1.60634 21.3298 -2.28882e-05 16.944 -2.28882e-05C10.5907 -2.28882e-05 5.10383 3.64583 2.43262 8.95216L7.68483 13.0313C9.00251 9.11467 12.6484 6.28095 16.944 6.28095Z" fill="#EB4335"/>
</g>
<defs>
<clipPath id="clip0_232_2675">
<rect width="32.6" height="32.6" fill="white" transform="translate(0.699951)"/>
</clipPath>
</defs>
</svg>
