<svg width="23" height="23" viewBox="0 0 23 23" fill="none" xmlns="http://www.w3.org/2000/svg">
<path fill-rule="evenodd" clip-rule="evenodd" d="M3.33333 9.71025C3.64016 9.71025 3.88889 9.46152 3.88889 9.1547V6.64386C3.88889 4.88179 4.6498 3.1919 6.00423 1.94595C7.35866 0.699977 9.19567 0 11.1111 0C13.0266 0 14.8636 0.699977 16.218 1.94595C17.5724 3.1919 18.3333 4.88179 18.3333 6.64386V9.1547C18.3333 9.46152 18.5821 9.71025 18.8889 9.71025C20.7299 9.71025 22.2222 11.0831 22.2222 12.7767V19.9316C22.2222 21.6251 20.7299 22.998 18.8889 22.998H3.33333C1.49239 22.998 0 21.6251 0 19.9316V12.7767C0 11.0831 1.49239 9.71025 3.33333 9.71025ZM8.36126 4.11421C9.09056 3.44331 10.0797 3.0664 11.1111 3.0664C12.1426 3.0664 13.1317 3.44331 13.861 4.11421C14.5903 4.78511 15 5.69505 15 6.64386C15 8.33738 13.6271 9.71025 11.9336 9.71025H10.2886C8.5951 9.71025 7.22222 8.33738 7.22222 6.64386C7.22222 5.69505 7.63194 4.78511 8.36126 4.11421Z" fill="#2CA481"/>
</svg>
