<svg width="31" height="25" viewBox="0 0 31 25" fill="none" xmlns="http://www.w3.org/2000/svg">
<path d="M30.7692 2.97767C29.8594 4.30108 28.8048 5.37634 27.6055 6.20347V7.07196C27.6055 9.13978 27.2126 11.2386 26.4268 13.3685C25.641 15.4983 24.4934 17.4214 22.9839 19.1377C21.4744 20.854 19.603 22.2601 17.3697 23.3561C15.1365 24.452 12.5724 25 9.67742 25C7.85773 25 6.14144 24.7519 4.52854 24.2556C2.91563 23.7593 1.40612 23.0562 0 22.1464C0.248139 22.1878 0.496278 22.2188 0.744417 22.2395C0.992556 22.2601 1.24069 22.2705 1.48883 22.2705C2.97767 22.2705 4.39413 22.0223 5.73821 21.5261C7.0823 21.0298 8.29198 20.3681 9.36725 19.5409C7.96112 19.4996 6.73077 19.0757 5.67618 18.2692C4.62159 17.4628 3.88751 16.4185 3.47395 15.1365C3.68073 15.2192 3.87717 15.2605 4.06328 15.2605H4.65261C5.2316 15.2605 5.76923 15.1985 6.26551 15.0744C4.81803 14.7436 3.61869 14.0095 2.66749 12.8722C1.71629 11.7349 1.24069 10.4012 1.24069 8.87097V8.80893C1.69562 9.01572 2.15054 9.19148 2.60546 9.33623C3.06038 9.48098 3.55666 9.55335 4.09429 9.55335C3.26716 8.97436 2.59512 8.22994 2.07816 7.3201C1.56121 6.41026 1.30273 5.4177 1.30273 4.34243C1.30273 3.18445 1.59222 2.12986 2.17122 1.17866C3.74276 3.08106 5.64516 4.62159 7.87841 5.80025C10.1117 6.97891 12.531 7.63027 15.1365 7.75434C15.0124 7.25806 14.9504 6.78246 14.9504 6.32754C14.9504 5.45906 15.1158 4.64227 15.4466 3.87717C15.7775 3.11208 16.2324 2.44003 16.8114 1.86104C17.3904 1.28205 18.0624 0.82713 18.8275 0.496278C19.5926 0.165426 20.4094 0 21.2779 0C22.1878 0 23.0356 0.175765 23.8213 0.527295C24.6071 0.878825 25.2895 1.36476 25.8685 1.98511C26.6129 1.86104 27.316 1.6646 27.9777 1.39578C28.6394 1.12696 29.2804 0.806452 29.9007 0.434243C29.4045 1.96443 28.4739 3.14309 27.1092 3.97022C28.4326 3.76344 29.6526 3.43259 30.7692 2.97767Z" fill="#CBACFF"/>
</svg>
