<svg width="28" height="28" viewBox="0 0 28 28" fill="none" xmlns="http://www.w3.org/2000/svg">
<g clip-path="url(#clip0_425_821)">
<path d="M21.1157 5.24609C21.1246 5.24609 21.1334 5.24609 21.1334 5.24609C22.0373 5.24609 22.7728 5.98366 22.764 6.90784C22.7552 7.81422 22.0108 8.55179 21.098 8.55179C20.1852 8.54292 19.4585 7.79649 19.4674 6.89007C19.4762 5.98366 20.2118 5.24609 21.1157 5.24609Z" fill="white"/>
<path d="M27.3026 7.37247C27.5064 9.54074 27.6393 19.7778 27.0013 22.1771C26.1506 25.314 24.1035 27.1712 20.9397 27.6867C19.7522 27.8821 16.5619 27.9977 13.3628 27.9977C10.0928 27.9977 6.83152 27.8733 5.73264 27.5889C2.62209 26.7803 0.761084 24.7453 0.264815 21.5817C-0.107387 19.2624 -0.142835 8.46546 0.521811 6.12838C1.39029 3.08036 3.42853 1.28532 6.50363 0.778797C7.91264 0.547751 10.6422 0.467773 13.3982 0.467773C15.9593 0.467773 18.547 0.538864 20.1067 0.618841C21.9943 0.716592 23.7135 1.32975 25.1226 2.67159C26.4519 3.96011 27.1343 5.55965 27.3026 7.37247ZM24.6618 21.1285C25.0517 18.7114 25.0517 9.8695 24.8302 7.60351C24.582 5.18643 23.1109 3.58688 20.7182 3.21365C19.5396 3.03593 16.686 2.95595 13.8502 2.95595C11.1119 2.95595 8.39121 3.02704 7.19486 3.16034C4.80213 3.43581 3.18926 4.91983 2.8082 7.31026C2.41827 9.8429 2.41827 19.3068 2.71071 21.2085C3.01202 23.1902 4.12862 24.5497 6.09598 25.1007C7.15941 25.4029 10.3497 25.5095 13.478 25.5095C16.3581 25.5095 19.1851 25.4206 20.2485 25.3051C22.6855 25.0296 24.2807 23.5368 24.6618 21.1285Z" fill="white"/>
<path d="M13.7978 7.17971C17.6794 7.17971 20.8076 10.3433 20.7811 14.2444C20.7545 18.1366 17.573 21.3001 13.6826 21.3001C9.79222 21.3001 6.6728 18.1366 6.69939 14.2355C6.72597 10.3344 9.90741 7.17082 13.7978 7.17971ZM13.7003 18.8031C16.1994 18.8031 18.2465 16.7858 18.2908 14.2799C18.3351 11.7473 16.3323 9.69452 13.8155 9.66792C13.7978 9.66792 13.7889 9.66792 13.7713 9.66792C11.2722 9.66792 9.22507 11.6851 9.18073 14.191C9.1364 16.7147 11.1393 18.7764 13.656 18.8031C13.6737 18.8031 13.6826 18.8031 13.7003 18.8031Z" fill="white"/>
</g>
<defs>
<clipPath id="clip0_425_821">
<rect width="28" height="28" fill="white"/>
</clipPath>
</defs>
</svg>
