<svg width="31" height="31" viewBox="0 0 31 31" fill="none" xmlns="http://www.w3.org/2000/svg">
<path d="M20.6857 15.1631C20.6857 14.753 20.6254 14.3066 20.5048 13.8241H22.0247V21.1342C22.0247 21.3272 21.9583 21.4841 21.8256 21.6047C21.6929 21.7253 21.5301 21.7856 21.3371 21.7856H9.43099C9.23798 21.7856 9.08116 21.7253 8.96053 21.6047C8.8399 21.4841 8.77959 21.3272 8.77959 21.1342V13.8241H10.2633C10.1427 14.3066 10.0824 14.753 10.0824 15.1631C10.0824 15.8869 10.2211 16.5745 10.4986 17.2259C10.776 17.8773 11.156 18.4382 11.6385 18.9086C12.121 19.3791 12.688 19.753 13.3394 20.0305C13.9908 20.3079 14.6784 20.4467 15.4021 20.4467C16.1259 20.4467 16.8135 20.3079 17.4649 20.0305C18.1163 19.753 18.6772 19.3791 19.1477 18.9086C19.6181 18.4382 19.9921 17.8773 20.2695 17.2259C20.547 16.5745 20.6857 15.8869 20.6857 15.1631ZM15.4021 18.4563C14.9437 18.4563 14.5095 18.3718 14.0993 18.203C13.6892 18.0341 13.3333 17.7988 13.0318 17.4973C12.7302 17.1957 12.495 16.8459 12.3261 16.4478C12.1572 16.0497 12.0728 15.6215 12.0728 15.1631C12.0728 14.7047 12.1572 14.2704 12.3261 13.8603C12.495 13.4502 12.7302 13.0943 13.0318 12.7927C13.3333 12.4912 13.6892 12.2559 14.0993 12.087C14.5095 11.9182 14.9437 11.8337 15.4021 11.8337C15.8605 11.8337 16.2888 11.9182 16.6868 12.087C17.0849 12.2559 17.4347 12.4912 17.7363 12.7927C18.0379 13.0943 18.2731 13.4502 18.442 13.8603C18.6109 14.2704 18.6953 14.7047 18.6953 15.1631C18.6953 15.6215 18.6109 16.0497 18.442 16.4478C18.2731 16.8459 18.0379 17.1957 17.7363 17.4973C17.4347 17.7988 17.0849 18.0341 16.6868 18.203C16.2888 18.3718 15.8605 18.4563 15.4021 18.4563ZM21.3371 8.54055C21.5301 8.54055 21.6929 8.60086 21.8256 8.72149C21.9583 8.84212 22.0247 8.99894 22.0247 9.19195V11.1823C22.0247 11.3753 21.9583 11.5322 21.8256 11.6528C21.6929 11.7734 21.5301 11.8337 21.3371 11.8337H19.3467C19.1537 11.8337 18.9969 11.7734 18.8763 11.6528C18.7556 11.5322 18.6953 11.3753 18.6953 11.1823V9.19195C18.6953 8.99894 18.7556 8.84212 18.8763 8.72149C18.9969 8.60086 19.1537 8.54055 19.3467 8.54055H21.3371ZM23.1103 0C24.1478 0 25.1309 0.199038 26.0597 0.597115C26.9886 0.995191 27.7968 1.53802 28.4844 2.22561C29.172 2.9132 29.7148 3.71538 30.1129 4.63216C30.5109 5.54894 30.71 6.52604 30.71 7.56345V22.6904C30.71 23.7278 30.5109 24.7109 30.1129 25.6397C29.7148 26.5686 29.172 27.3768 28.4844 28.0644C27.7968 28.752 26.9886 29.2948 26.0597 29.6929C25.1309 30.091 24.1478 30.29 23.1103 30.29H7.98344C6.94602 30.29 5.96893 30.091 5.05215 29.6929C4.13536 29.2948 3.33318 28.752 2.64559 28.0644C1.95801 27.3768 1.41517 26.5686 1.0171 25.6397C0.619021 24.7109 0.419983 23.7278 0.419983 22.6904V7.56345C0.419983 6.52604 0.619021 5.54894 1.0171 4.63216C1.41517 3.71538 1.95801 2.9132 2.64559 2.22561C3.33318 1.53802 4.13536 0.995191 5.05215 0.597115C5.96893 0.199038 6.94602 0 7.98344 0H23.1103ZM24.0151 8.54055C24.0151 7.98566 23.8221 7.5152 23.436 7.12919C23.05 6.74317 22.5796 6.55017 22.0247 6.55017H8.77959C8.22469 6.55017 7.75424 6.74317 7.36823 7.12919C6.98221 7.5152 6.78921 7.98566 6.78921 8.54055V21.7856C6.78921 22.3405 6.98221 22.811 7.36823 23.197C7.75424 23.583 8.22469 23.776 8.77959 23.776H22.0247C22.5796 23.776 23.05 23.583 23.436 23.197C23.8221 22.811 24.0151 22.3405 24.0151 21.7856V8.54055Z" fill="white"/>
</svg>
