<svg width="31" height="31" viewBox="0 0 31 31" fill="none" xmlns="http://www.w3.org/2000/svg">
<path d="M22.8565 0C23.8939 0 24.871 0.199038 25.7878 0.597115C26.7046 0.995191 27.5068 1.53802 28.1944 2.22561C28.882 2.9132 29.4248 3.71538 29.8229 4.63216C30.2209 5.54894 30.42 6.52604 30.42 7.56345V22.6904C30.42 23.7278 30.2209 24.7109 29.8229 25.6397C29.4248 26.5686 28.882 27.3768 28.1944 28.0644C27.5068 28.752 26.7046 29.2948 25.7878 29.6929C24.871 30.091 23.8939 30.29 22.8565 30.29H7.69343C6.65602 30.29 5.67892 30.091 4.76214 29.6929C3.84535 29.2948 3.04317 28.752 2.35558 28.0644C1.668 27.3768 1.12517 26.5686 0.727089 25.6397C0.329013 24.7109 0.129974 23.7278 0.129974 22.6904V7.56345C0.129974 6.52604 0.329013 5.54894 0.727089 4.63216C1.12517 3.71538 1.668 2.9132 2.35558 2.22561C3.04317 1.53802 3.84535 0.995191 4.76214 0.597115C5.67892 0.199038 6.65602 0 7.69343 0H22.8565ZM10.5523 11.3633H6.75252V23.6675H10.5523V11.3633ZM8.67052 10.3862C9.17717 10.3862 9.61746 10.2052 9.99141 9.84335C10.3654 9.48146 10.5523 9.03513 10.5523 8.50436C10.5523 7.97359 10.3654 7.52726 9.99141 7.16538C9.61746 6.80349 9.17717 6.62254 8.67052 6.62254C8.13976 6.62254 7.6874 6.80349 7.31345 7.16538C6.93949 7.52726 6.75252 7.97359 6.75252 8.50436C6.75252 9.03513 6.93949 9.48146 7.31345 9.84335C7.6874 10.2052 8.13976 10.3862 8.67052 10.3862ZM23.7974 16.5383C23.7974 15.6697 23.5562 14.8193 23.0737 13.987C22.5911 13.1546 21.9639 12.5213 21.1918 12.087C20.4922 11.701 19.6779 11.496 18.7491 11.4718C17.8203 11.4477 16.9819 11.6045 16.234 11.9423V11.3633H12.4342V23.6675H16.234V16.1402L17.7901 15.3802C17.9831 15.2837 18.2485 15.2355 18.5862 15.2355C18.924 15.2355 19.1773 15.2958 19.3462 15.4164C19.491 15.4888 19.6357 15.6456 19.7805 15.8869C19.9252 16.1281 19.9976 16.3453 19.9976 16.5383V23.6675H23.7974V16.5383Z" fill="white"/>
</svg>
