<svg width="22" height="22" viewBox="0 0 22 22" fill="none" xmlns="http://www.w3.org/2000/svg">
<path fill-rule="evenodd" clip-rule="evenodd" d="M9.9 3.85001C6.55867 3.85001 3.85 6.55869 3.85 9.90001C3.85 13.2413 6.55867 15.95 9.9 15.95C11.5709 15.95 13.0823 15.2737 14.178 14.178C15.2737 13.0823 15.95 11.5709 15.95 9.90001C15.95 6.55869 13.2413 3.85001 9.9 3.85001ZM2.2 9.90001C2.2 5.64742 5.6474 2.20001 9.9 2.20001C14.1526 2.20001 17.6 5.64742 17.6 9.90001C17.6 11.7288 16.9617 13.4096 15.8969 14.7302L19.5584 18.3916C19.8805 18.7138 19.8805 19.2362 19.5584 19.5584C19.2362 19.8806 18.7138 19.8806 18.3916 19.5584L14.7302 15.8969C13.4096 16.9617 11.7288 17.6 9.9 17.6C5.6474 17.6 2.2 14.1526 2.2 9.90001Z" fill="#656565"/>
</svg>
