<svg width="25" height="25" viewBox="0 0 25 25" fill="none" xmlns="http://www.w3.org/2000/svg">
<path fill-rule="evenodd" clip-rule="evenodd" d="M10.625 2.5C6.13768 2.5 2.5 6.13768 2.5 10.625C2.5 15.1123 6.13769 18.75 10.625 18.75C15.1123 18.75 18.75 15.1123 18.75 10.625C18.75 6.13769 15.1123 2.5 10.625 2.5ZM0 10.625C0 4.75697 4.75697 0 10.625 0C16.493 0 21.25 4.75696 21.25 10.625C21.25 13.1129 20.3949 15.4011 18.9625 17.2117L24.6326 22.8648C25.1214 23.3522 25.1226 24.1437 24.6352 24.6326C24.1478 25.1214 23.3563 25.1226 22.8674 24.6352L17.1927 18.9775C15.3851 20.4008 13.1042 21.25 10.625 21.25C4.75696 21.25 0 16.493 0 10.625Z" fill="black"/>
</svg>
