<svg width="61" height="61" viewBox="0 0 61 61" fill="none" xmlns="http://www.w3.org/2000/svg">
<path d="M30.4997 5.08301C25.4727 5.08301 20.5587 6.57367 16.3789 9.36649C12.1992 12.1593 8.94148 16.1288 7.01775 20.7731C5.09402 25.4174 4.59069 30.5279 5.57139 35.4582C6.5521 40.3886 8.9728 44.9174 12.5274 48.472C16.082 52.0266 20.6108 54.4473 25.5411 55.428C30.4715 56.4087 35.5819 55.9053 40.2262 53.9816C44.8705 52.0579 48.8401 48.8002 51.6329 44.6204C54.4257 40.4407 55.9164 35.5266 55.9164 30.4997C55.9164 27.1619 55.2589 23.8568 53.9816 20.7731C52.7043 17.6894 50.8321 14.8875 48.472 12.5274C46.1118 10.1672 43.3099 8.29504 40.2262 7.01774C37.1425 5.74043 33.8375 5.08301 30.4997 5.08301ZM30.4997 50.833C26.4781 50.833 22.5469 49.6405 19.2031 47.4062C15.8593 45.172 13.2531 41.9963 11.7141 38.2809C10.1752 34.5655 9.77249 30.4771 10.5571 26.5328C11.3416 22.5886 13.2782 18.9655 16.1218 16.1218C18.9655 13.2782 22.5886 11.3416 26.5329 10.557C30.4771 9.77248 34.5655 10.1751 38.2809 11.7141C41.9964 13.2531 45.172 15.8593 47.4062 19.2031C49.6405 22.5469 50.833 26.4781 50.833 30.4997C50.833 35.8924 48.6908 41.0643 44.8775 44.8775C41.0643 48.6908 35.8924 50.833 30.4997 50.833Z" fill="white"/>
<path d="M31.3639 18.9354C30.7411 18.3615 29.9634 17.9833 29.1274 17.8477C28.2914 17.7121 27.434 17.8252 26.6618 18.1729C25.9121 18.4762 25.2699 18.9961 24.8172 19.6661C24.3644 20.3361 24.1218 21.126 24.1201 21.9346V39.0654C24.1218 39.8741 24.3644 40.6639 24.8172 41.334C25.2699 42.004 25.9121 42.5239 26.6618 42.8271C27.2128 43.077 27.8105 43.207 28.4155 43.2084C29.5057 43.2035 30.5557 42.7962 31.3639 42.0646L40.6664 33.4992C41.0824 33.1182 41.4147 32.6548 41.642 32.1385C41.8692 31.6222 41.9866 31.0642 41.9866 30.5C41.9866 29.9359 41.8692 29.3779 41.642 28.8616C41.4147 28.3453 41.0824 27.8819 40.6664 27.5009L31.3639 18.9354ZM29.2289 37.1084V23.8917L36.371 30.5L29.2289 37.1084Z" fill="white"/>
</svg>
