<svg width="32" height="31" viewBox="0 0 32 31" fill="none" xmlns="http://www.w3.org/2000/svg">
<path d="M23.5665 0C24.6039 0 25.581 0.199038 26.4978 0.597115C27.4146 0.995191 28.2168 1.53802 28.9044 2.22561C29.5919 2.9132 30.1348 3.71538 30.5329 4.63216C30.9309 5.54894 31.13 6.52604 31.13 7.56345V22.6904C31.13 23.7278 30.9309 24.7109 30.5329 25.6397C30.1348 26.5686 29.5919 27.3768 28.9044 28.0644C28.2168 28.752 27.4146 29.2948 26.4978 29.6929C25.581 30.091 24.6039 30.29 23.5665 30.29H8.40342C7.36601 30.29 6.38891 30.091 5.47213 29.6929C4.55535 29.2948 3.75316 28.752 3.06558 28.0644C2.37799 27.3768 1.83516 26.5686 1.43708 25.6397C1.039 24.7109 0.839966 23.7278 0.839966 22.6904V7.56345C0.839966 6.52604 1.039 5.54894 1.43708 4.63216C1.83516 3.71538 2.37799 2.9132 3.06558 2.22561C3.75316 1.53802 4.55535 0.995191 5.47213 0.597115C6.38891 0.199038 7.36601 0 8.40342 0H23.5665ZM13.687 13.7517C13.687 14.3066 13.8679 14.7409 14.2298 15.0545C14.5676 15.3682 15.0501 15.525 15.6774 15.525C16.3288 15.525 16.8233 15.3682 17.1611 15.0545C17.523 14.765 17.7039 14.3308 17.7039 13.7517V10.4224C17.7039 9.96397 17.523 9.5659 17.1611 9.22814C16.8233 8.9145 16.3529 8.75768 15.7497 8.75768C15.1225 8.75768 14.6279 8.90244 14.266 9.19195C13.88 9.48146 13.687 9.87953 13.687 10.3862V13.7517ZM11.7328 15.525H7.46251V16.683H8.91006V23.4865H10.2852V16.683H11.7328V15.525ZM11.769 11.7614L13.5784 6.62254H11.9861L11.0452 10.1329H10.9366L9.92335 6.62254H8.36723L10.2129 11.9061V15.3802H11.769V11.7614ZM15.7859 17.6239H14.5555V22.0751C14.5073 22.1475 14.4469 22.2078 14.3746 22.2561L14.1574 22.4008C14.0127 22.4732 13.9041 22.5094 13.8317 22.5094C13.7111 22.5094 13.6267 22.4853 13.5784 22.437C13.5302 22.3888 13.506 22.2802 13.506 22.1113V17.6239H12.2756V22.5456C12.2756 22.8834 12.348 23.1367 12.4928 23.3056C12.6375 23.4986 12.8426 23.5951 13.108 23.5951C13.3251 23.5951 13.5663 23.5227 13.8317 23.3779C14.0489 23.2814 14.2901 23.1005 14.5555 22.8351V23.4865H15.7859V17.6239ZM20.2371 19.0353C20.2371 18.5528 20.1286 18.1788 19.9114 17.9134C19.7426 17.6722 19.4531 17.5516 19.0429 17.5516C18.8258 17.5516 18.6328 17.5998 18.4639 17.6963C18.2709 17.7687 18.102 17.9014 17.9573 18.0944V15.525H16.6906V23.4865H17.9573V23.0522C18.0296 23.1488 18.108 23.2272 18.1925 23.2875C18.2769 23.3478 18.3674 23.4021 18.4639 23.4503C18.6328 23.5227 18.8499 23.5589 19.1153 23.5589C19.4772 23.5589 19.7546 23.4503 19.9476 23.2332C20.1406 22.9919 20.2371 22.6783 20.2371 22.2923V19.0353ZM19.8029 15.4526C20.0924 15.4526 20.3578 15.3923 20.599 15.2717C20.8403 15.151 21.1057 14.946 21.3952 14.6565V15.3802H22.7704V8.90244H21.3952V13.8241C21.2987 13.9447 21.1539 14.0654 20.9609 14.186C20.8162 14.2584 20.6955 14.2946 20.599 14.2946C20.4302 14.2946 20.3337 14.2584 20.3095 14.186C20.2371 14.1136 20.201 14.0051 20.201 13.8603V8.90244H18.8258V14.3308C18.8258 14.7168 18.9102 14.9942 19.0791 15.1631C19.1997 15.3561 19.441 15.4526 19.8029 15.4526ZM24.5074 19.2162C24.5074 18.6372 24.3506 18.203 24.037 17.9134C23.7475 17.6239 23.3132 17.4792 22.7342 17.4792C22.1793 17.4792 21.7329 17.636 21.3952 17.9496C21.0574 18.2874 20.8885 18.7096 20.8885 19.2162V21.8218C20.8885 22.4008 21.0454 22.8472 21.359 23.1608C21.6968 23.4986 22.131 23.6675 22.6618 23.6675C23.2649 23.6675 23.7233 23.5106 24.037 23.197C24.3506 22.9075 24.5074 22.4491 24.5074 21.8218V21.5323H23.2408V21.7856C23.2408 22.1475 23.2046 22.3767 23.1322 22.4732C23.0357 22.5697 22.891 22.618 22.698 22.618C22.4567 22.618 22.312 22.5577 22.2637 22.437C22.1913 22.3405 22.1552 22.1234 22.1552 21.7856V20.7H24.5074V19.2162ZM22.698 18.4925C22.891 18.4925 23.0237 18.5528 23.0961 18.6734C23.1926 18.7699 23.2408 18.9388 23.2408 19.18V19.7953H22.1552V19.18C22.1552 18.9629 22.1913 18.794 22.2637 18.6734C22.3843 18.5528 22.5291 18.4925 22.698 18.4925ZM18.4639 18.4925C18.6328 18.4925 18.7534 18.5407 18.8258 18.6372C18.9223 18.7337 18.9705 18.8785 18.9705 19.0715V22.1113C18.9705 22.3043 18.9344 22.437 18.862 22.5094C18.7896 22.6059 18.681 22.6542 18.5363 22.6542C18.4398 22.6542 18.3433 22.63 18.2468 22.5818C18.1261 22.5335 18.0296 22.4612 17.9573 22.3647V18.7096C18.0538 18.6131 18.1382 18.5528 18.2106 18.5287C18.2588 18.5045 18.3433 18.4925 18.4639 18.4925ZM15.6774 14.4031C15.4844 14.4031 15.3517 14.3549 15.2793 14.2584C15.1587 14.186 15.0983 14.0533 15.0983 13.8603V10.35C15.0983 10.2294 15.1587 10.1087 15.2793 9.9881C15.3758 9.91572 15.5085 9.87953 15.6774 9.87953C15.8462 9.87953 16.0031 9.91572 16.1478 9.9881C16.2443 10.0846 16.2926 10.2052 16.2926 10.35V13.8603C16.2926 14.0533 16.2443 14.186 16.1478 14.2584C16.0513 14.3549 15.8945 14.4031 15.6774 14.4031Z" fill="white"/>
</svg>
